<?xml version="1.0" encoding="utf-8"?>
<!-- Generator: Adobe Illustrator 27.1.0, SVG Export Plug-In . SVG Version: 6.00 Build 0)  -->
<svg version="1.1" id="Camada_1" xmlns="http://www.w3.org/2000/svg" xmlns:xlink="http://www.w3.org/1999/xlink" x="0px" y="0px"
	 viewBox="0 0 100 100" style="enable-background:new 0 0 100 100;" xml:space="preserve">
<style type="text/css">
	.st0{fill:#85E063;}
	.st1{fill:#4DC15E;}
	.st2{fill:#381B49;}
	.st3{fill:#EACE49;}
	.st4{fill:#A3BF30;}
	.st5{fill:#C97D65;}
	.st6{fill:#A86251;}
	.st7{fill:#873E39;}
	.st8{opacity:0.6;}
	.st9{fill:#FFFFFF;}
	.st10{fill-rule:evenodd;clip-rule:evenodd;fill:#381B49;}
	.st11{fill-rule:evenodd;clip-rule:evenodd;fill:#FFFFFF;}
</style>
<g>
	<g>
		<g>
			<path class="st0" d="M62.1,75.6l7.7,8.6c0.5,0.6,1.3,0.8,2,0.6c9.7-3,11.9-9.3,6.5-11.5l-6.7-10L62.1,75.6z"/>
		</g>
		<g>
			<path class="st1" d="M75.1,68.3c0,0-6,8.8-6,10.6c0,1.8,3.4,4.9,3.4,4.9l0.1,0.6L71,84.8l-7.1-7.2c0,0,6.9-6.1,8.8-12.3
				L75.1,68.3z"/>
		</g>
		<g>
			<path class="st1" d="M77.3,74.4c0,0-1,2-3.4,3.4c0.9-1.5,1.8-3,1.9-5.5L77.3,74.4z"/>
		</g>
		<g>
			<path class="st2" d="M71.3,85.6c-0.8,0-1.6-0.3-2.1-0.9l-8.2-9.1l10.8-13.9l7.2,10.8c2.1,0.9,3.2,2.5,3.2,4.4
				c-0.1,3.4-4.1,6.8-10,8.6C71.8,85.6,71.5,85.6,71.3,85.6z M63.2,75.5l7.2,8c0.3,0.3,0.7,0.5,1.2,0.3c5.9-1.8,8.7-4.8,8.8-7
				c0.1-1.6-1.2-2.4-2.3-2.8l-0.2-0.1l-6.2-9.2L63.2,75.5z"/>
		</g>
		<g>
			<path class="st1" d="M42.9,88.4c5.3,1,11,0.5,8.5-2.6c-0.1-0.2,1.1-8.8,1.1-8.8H42.2l-0.7,10.6L42.9,88.4z"/>
		</g>
		<g>
			<path class="st2" d="M47.6,89.7c-2.1,0-4.2-0.4-4.9-0.5l-0.1,0l-1.9-1l0.8-12h12l-0.1,1c-0.5,3.5-1,7.3-1.1,8.4
				c0.8,1.2,0.7,2.1,0.3,2.6C51.8,89.4,49.7,89.7,47.6,89.7z M43.1,87.5c4.5,0.8,7.5,0.3,7.9-0.3c0.1-0.1,0-0.4-0.4-0.9l-0.1-0.1
				l0-0.1c-0.1-0.3-0.2-0.4,0.9-8.3H43l-0.6,9.3L43.1,87.5z"/>
		</g>
		<g>
			<path class="st0" d="M14.8,65.3c0,0-6.6,7.6-8.8,15.7c1.6,6.2,10.8,9.2,13.2,3c0,0,3-6.3,4.4-8.2C24.9,73.7,14.8,65.3,14.8,65.3z
				"/>
		</g>
		<g>
			<path class="st1" d="M13.5,69.4c0,0-2,3-3.1,5.6c0,0,3.9-0.3,6.6,2.7s2,6,2,6l4-7.2l-5.2-5.9c0,0-1.4-0.7-1.5-0.8
				C16.1,69.7,13.5,69.4,13.5,69.4z"/>
		</g>
		<g>
			<path class="st2" d="M14.2,88.3c-0.2,0-0.3,0-0.5,0C9.8,88,6.1,85,5.1,81.2L5.1,81l0.1-0.2c2.2-8.2,8.7-15.7,9-16l0.6-0.6
				l0.7,0.5c0,0,2.6,2.2,5,4.5c3.7,3.7,4.9,5.8,4,7.1c-1.3,1.8-4.1,7.6-4.3,8.1C19,86.8,16.9,88.3,14.2,88.3z M6.9,81
				c1,3.3,4.2,5.4,7,5.5c1.3,0.1,3.5-0.2,4.5-2.9l0-0.1c0.1-0.3,3-6.3,4.4-8.3c0-0.2-0.1-1.3-4-5.2c-1.5-1.5-3-2.8-3.9-3.5
				C13.3,68.5,8.7,74.6,6.9,81z"/>
		</g>
		<g>
			<path class="st3" d="M73.3,63.6c-7.8,24.1-44.1,25-56.4,5.7"/>
		</g>
		<g>
			<path class="st4" d="M32.5,71.8c0,0-5.7,1.4-6.3,3c-0.6,1.6,2.1,4.1,2.1,4.1s-7-2.7-9.7-8h14.6L32.5,71.8z"/>
		</g>
		<g>
			<path class="st2" d="M44.1,83.7c-4.7,0-9.5-0.9-13.7-2.5c-6.1-2.4-11.1-6.3-14.3-11.4c-0.3-0.4-0.1-0.9,0.3-1.2
				c0.4-0.3,0.9-0.1,1.2,0.3c6,9.3,18.5,14.5,31.2,12.8c11.6-1.5,20.5-8.4,23.7-18.3c0.1-0.5,0.6-0.7,1.1-0.6
				c0.5,0.1,0.7,0.6,0.6,1.1C70.7,74.5,61.3,81.8,49,83.4C47.4,83.6,45.8,83.7,44.1,83.7z"/>
		</g>
		<g>
			<path class="st1" d="M71,64.4c-4.3,7.4-19.4,7.2-27.3,0.9l4.3-4.8L71,64.4z"/>
		</g>
		<g>
			<path class="st2" d="M58.2,70.9c-5.5,0-11.2-1.8-15.1-4.9l-0.7-0.6l5.2-5.8l24.8,4.2l-0.6,1.1c-1.7,2.8-4.9,4.8-9.2,5.6
				C61.1,70.8,59.7,70.9,58.2,70.9z M44.9,65.2c4.6,3.3,11.4,4.7,17.3,3.6c3.2-0.6,5.7-1.9,7.3-3.7l-21.3-3.6L44.9,65.2z"/>
		</g>
		<g>
			<g>
				<path class="st5" d="M10.4,57.2C17.3,46.1,23.3,34,39.6,33.1l3.6,27.7C31.1,67.4,14.5,69.9,10.4,57.2z"/>
			</g>
			<g>
				<path class="st6" d="M22.7,40.1c6.1,6.5,1.4,19-10.4,19.7L11,56.2C14.2,50.3,18.1,44.9,22.7,40.1z"/>
			</g>
			<g>
				<path class="st7" d="M23.4,53.1c-4,1.4-8.7,3.6-8.1-0.4l-3.1,4.8l1.1,1.5C13.2,59,19.7,58.9,23.4,53.1z"/>
			</g>
			<g class="st8">
				<path class="st9" d="M17.7,48.9c1.8-2.6,3.4-5,4.7-6.2C23.9,47.8,19.9,50.4,17.7,48.9z"/>
			</g>
			<g>
				<path class="st6" d="M23.4,39.5c2.8,3.9,6.8,4.5,11.9,1.8l0.9-7.2l-0.7-0.3C35.4,33.9,28.3,35.1,23.4,39.5z"/>
			</g>
			<g class="st8">
				<path class="st9" d="M31.5,36.2l4.1-1.2l-1.2,6.5c-3.3,0.5-6.1,0.2-8.3-1C26.2,40.5,26.8,38.7,31.5,36.2z"/>
			</g>
			<g>
				<path class="st6" d="M35.2,42.1c-7.5,2.2-12.1,7.7-9.8,21.1c0,0,5.6-0.7,12.4-5S35.2,42.1,35.2,42.1z"/>
			</g>
			<g>
				<path class="st7" d="M36.3,56.5c-3.8,1.5-9.8,2.2-9.7-4.9c0,0-1.1,6,0,10.9c0,0,4.2,0.5,10.7-4.1L36.3,56.5z"/>
			</g>
			<g class="st8">
				<path class="st9" d="M31.5,45.4c-1.5,1-2.8,2.6-3.8,4.6C30.9,48.4,33.8,46.8,31.5,45.4z"/>
			</g>
			<g>
				<path class="st2" d="M24.3,67.1c-2.5,0-5-0.4-7.1-1.3c-3.7-1.5-6.3-4.3-7.6-8.4c-0.1-0.2,0-0.5,0.1-0.7c0.5-0.9,1.1-1.7,1.6-2.6
					c6.3-10.4,12.8-21.1,28.3-21.9c0.5,0,0.8,0.3,0.9,0.8l3.6,27.7c0,0.4-0.1,0.7-0.4,0.9C38.1,64.6,30.8,67.1,24.3,67.1z
					 M11.4,57.3c1.2,3.3,3.3,5.7,6.5,6.9c7.1,2.9,17.2-0.1,24.5-3.9L38.9,34c-14,1.1-19.9,10.8-26.1,21
					C12.3,55.8,11.8,56.5,11.4,57.3z"/>
			</g>
			<g>
				<path class="st5" d="M49.8,62.5C36.7,73.2,11.6,75.8,4.9,59.7c-0.1-3,3.9-4.6,6-3.2c4.2,9.1,17.8,8.5,28,1.6L49.8,62.5z"/>
			</g>
			<g class="st8">
				<path class="st9" d="M34.6,61.3c-6.3,5.5-19.7,5.8-23.6-2.8C14.5,63.6,22.6,65.7,34.6,61.3z"/>
			</g>
			<g>
				<path class="st6" d="M6.4,59.4c0,0,0.2-1,1.6-1.6c2.5,13.4,32,11.9,27.9,2.8l2.5-1.4l8.6,5.1C29.1,73.4,11.3,70.9,6.4,59.4z"/>
			</g>
			<g>
				<path class="st2" d="M25.1,72c-2.6,0-5.1-0.3-7.4-0.9c-6.6-1.6-11.3-5.5-13.7-11.1C4,60,4,59.9,4,59.8c0-1.6,0.9-3.1,2.4-3.9
					c1.6-0.9,3.6-0.9,4.9,0c0.1,0.1,0.2,0.2,0.3,0.4c1.3,2.9,3.7,4.8,6.9,5.7c5.6,1.6,13.4-0.2,19.8-4.4c0.2-0.2,0.5-0.2,0.8-0.1
					l10.9,4.3c0.3,0.1,0.5,0.4,0.5,0.7c0,0.3-0.1,0.6-0.3,0.8c-4.2,3.4-9.7,6.1-15.6,7.6C31.5,71.6,28.2,72,25.1,72z M5.7,59.6
					c2.2,5,6.5,8.5,12.4,9.9c9.2,2.3,21.6-0.5,29.9-6.7L39,59.2c-6.8,4.4-14.8,6.1-20.9,4.4c-3.6-1-6.4-3.2-7.9-6.4
					c-0.8-0.4-1.9-0.3-2.9,0.2C6.8,57.6,5.8,58.3,5.7,59.6z"/>
			</g>
			<g>
				<g>
					<path class="st0" d="M92.4,38.8c7.6,7-0.2,24.5-25.4,26.6c-12.5,1-26.1-0.8-30.6-9.4c-0.7-1.3-1.1-2.8-1.3-4.3
						C29.4,7.5,83.8-6.2,92.4,38.8z"/>
				</g>
				<g>
					<path class="st1" d="M93.4,50c-15.5,15.5-60.3,15.7-55-17.7c-2.6,11.3-2.2,17.8-1.4,23.7C46.4,71.2,89.3,67.7,93.4,50z"/>
				</g>
				<g>
					<ellipse class="st10" cx="60.4" cy="39.9" rx="5.4" ry="6.8"/>
				</g>
				<g>
					<ellipse transform="matrix(0.9943 -0.107 0.107 0.9943 -3.6574 6.9359)" class="st11" cx="62.8" cy="37.5" rx="1.2" ry="1.6"/>
				</g>
				<g class="st8">
					<ellipse class="st11" cx="59.3" cy="44.1" rx="0.9" ry="0.8"/>
				</g>
				<g>
					<ellipse class="st10" cx="86.4" cy="37" rx="3.8" ry="5.9"/>
				</g>
				<g>
					
						<ellipse transform="matrix(0.9981 -6.167834e-02 6.167834e-02 0.9981 -1.9852 5.5003)" class="st11" cx="88.1" cy="34.9" rx="0.8" ry="1.4"/>
				</g>
				<g class="st8">
					<ellipse class="st11" cx="85.7" cy="40.6" rx="0.7" ry="0.7"/>
				</g>
				<g>
					<path class="st10" d="M56.2,28.1c-0.2-1.2,1-2.3,2.7-2.6c1.7-0.3,3.3,0.4,3.4,1.6c0.1,0.8-1.2,0.3-2.9,1.3
						C57.6,29.6,56.4,29.3,56.2,28.1z"/>
				</g>
				<g>
					<path class="st10" d="M86.8,27.2c0.2-0.9-0.8-1.9-2.2-2.2c-1.4-0.3-2.8,0.2-2.9,1.1c-0.1,0.7,1,0.3,2.4,1.2
						C85.6,28.3,86.6,28.1,86.8,27.2z"/>
				</g>
				<g>
					<path class="st2" d="M70.5,44.4c3.1-3.1,9.3-4.3,11.5,0.4c0,0.1,0,0.1-0.1,0.2c-0.1,0-0.1,0-0.1,0c-0.7-0.8-1.5-1.5-2.4-1.8
						c-1.9-0.8-4-0.3-5.8,0.3c-1,0.4-1.9,0.8-2.9,1.3C70.5,44.8,70.4,44.5,70.5,44.4L70.5,44.4z"/>
				</g>
				<g>
					<path class="st2" d="M60.9,66.5c-4.6,0-8.8-0.5-12.4-1.4c-6.4-1.6-10.7-4.6-12.9-8.8c-0.7-1.3-1.2-2.9-1.4-4.6
						c-1.4-11,0.7-20.8,6.1-28.5c4.8-6.8,12.1-11.4,19.9-12.7c7.2-1.2,14.4,0.6,20.2,5c6.4,4.9,10.8,12.8,12.8,22.8
						c2.8,2.8,3.6,7,2.1,11.3c-1.4,4-4.6,7.8-9,10.6c-5.1,3.3-11.7,5.3-19.2,6C64.9,66.5,62.9,66.5,60.9,66.5z M64.4,12
						c-1.3,0-2.6,0.1-3.9,0.3C46.1,14.6,33,28.8,35.9,51.6c0.2,1.5,0.6,2.8,1.2,4c5.2,9.9,22.6,9.6,29.8,9
						c7.2-0.6,13.6-2.6,18.4-5.7c4.1-2.7,7-6.1,8.3-9.7c1.3-3.8,0.6-7.4-1.9-9.7l-0.2-0.2L91.5,39C87.9,19.9,75.9,12,64.4,12z"/>
				</g>
				<g>
					<path class="st2" d="M81.1,47.6c-0.8,2.2-3.5,3.7-5.7,2.7c-0.7-0.3-1.3-0.9-1.7-1.5c-0.1-0.1,0-0.3,0.1-0.4c0.1,0,0.2,0,0.3,0
						c1.1,0.7,2.2,1.1,3.4,0.8c1.2-0.3,2.2-1,3-2C80.8,46.9,81.3,47.2,81.1,47.6L81.1,47.6z"/>
				</g>
			</g>
			<g>
				<path class="st2" d="M23.1,39.8c4.2,4.7,2.7,11.1-0.9,15.7c-0.2,0.2-0.5,0-0.4-0.2c0.6-1.2,1.2-2.5,1.6-3.7
					c0.9-2.4,1.2-5.2,0.5-7.6c-0.3-1.2-0.9-2.4-1.6-3.5C21.9,39.9,22.7,39.3,23.1,39.8L23.1,39.8z"/>
			</g>
			<g>
				<path class="st2" d="M24.7,60.6c-1.2-6.6-0.1-14.7,7-17.4c0.2-0.1,0.3,0,0.4,0.2c0.1,0.1,0,0.3-0.1,0.4
					c-1.4,0.9-2.6,1.9-3.5,3.1c-1.9,2.5-2.6,5.7-2.9,8.8c-0.1,1.6-0.2,3.2-0.2,4.9C25.3,60.9,24.8,60.9,24.7,60.6L24.7,60.6z"/>
			</g>
			<g>
				<path class="st2" d="M34.8,41.8c-2,2.5-7.5,2.6-9.3-0.2c-0.1-0.1,0.1-0.2,0.2-0.2c2.3,1.8,6.4,1.4,8.9,0.1
					C34.7,41.4,34.9,41.6,34.8,41.8L34.8,41.8z"/>
			</g>
			<g>
				<path class="st2" d="M12.7,58.7c1.9,0.2,3.8-0.1,5.6-0.7c0.3-0.1,0.5-0.2,0.8-0.3c0.1,0,0.2,0.1,0.1,0.2
					c-1.7,1.6-4.6,2.5-6.7,1.1C12.4,58.9,12.5,58.6,12.7,58.7L12.7,58.7z"/>
			</g>
		</g>
		<g>
			<path class="st0" d="M44.8,84.8c1.4,0.9,1.7,3.4-0.5,3.8c-4.2,0.3-8.1,0.4-10.9,0c-0.9-0.1-1.6-0.9-1.7-1.9
				c-0.2-2.9,0.4-7.8,1-13C33.7,62.3,50.4,66.2,44.8,84.8z"/>
		</g>
		<g>
			<path class="st1" d="M42.1,85.1c0,0-7.7,0.4-8.2,0c-0.5-0.4,0-7,0-7S35.8,85.1,42.1,85.1z"/>
		</g>
		<g>
			<path class="st2" d="M37.9,89.8c-1.9,0-3.5-0.1-4.8-0.3c-1.3-0.2-2.4-1.3-2.4-2.7c-0.2-3,0.4-8.1,1-13.2c0.3-3.4,2-5.8,4.5-6.8
				c2.4-0.9,5.1-0.2,7.2,1.7c1.7,1.6,5.2,6.2,2.4,16c0.7,0.7,1.1,1.8,0.9,2.8c-0.2,1.1-1.1,2-2.3,2.2l-0.1,0
				C41.8,89.7,39.7,89.8,37.9,89.8z M44.2,88.7L44.2,88.7L44.2,88.7z M38.4,68.2c-0.5,0-1.1,0.1-1.6,0.3c-1.9,0.7-3.1,2.7-3.4,5.4
				c-0.6,5-1.1,10-1,12.9c0,0.5,0.4,1,1,1.1c3,0.5,7.3,0.3,10.7,0c0.5-0.1,0.8-0.4,0.9-0.8c0.1-0.5-0.2-1.1-0.7-1.4l-0.6-0.3
				l0.2-0.6c1.9-6.4,1.3-11.9-1.8-14.8C41.1,68.7,39.7,68.2,38.4,68.2z"/>
		</g>
	</g>
	<g>
		<g class="st8">
			<path class="st9" d="M87.2,27.8c-8.9-16.7-27.2-19.9-42-6.7c5.6-4.4,12.2-6.6,18.6-6.7c2.6,2.1,5.6,2.5,9.1,1.4
				C78.7,17.8,83.8,21.8,87.2,27.8z"/>
		</g>
	</g>
</g>
</svg>
